<?xml version="1.0" encoding="UTF-8" standalone="no"?>
<svg
   xmlns:dc="http://purl.org/dc/elements/1.1/"
   xmlns:cc="http://creativecommons.org/ns#"
   xmlns:rdf="http://www.w3.org/1999/02/22-rdf-syntax-ns#"
   xmlns:svg="http://www.w3.org/2000/svg"
   xmlns="http://www.w3.org/2000/svg"
   xmlns:sodipodi="http://sodipodi.sourceforge.net/DTD/sodipodi-0.dtd"
   xmlns:inkscape="http://www.inkscape.org/namespaces/inkscape"
   id="svg4213"
   version="1.1"
   inkscape:version="0.91 r13725"
   sodipodi:docname="logoZPOINT.svg"
   width="210mm"
   height="297mm">
  <metadata
     id="metadata4250">
    <rdf:RDF>
      <cc:Work
         rdf:about="">
        <dc:format>image/svg+xml</dc:format>
        <dc:type
           rdf:resource="http://purl.org/dc/dcmitype/StillImage" />
        <dc:title></dc:title>
      </cc:Work>
    </rdf:RDF>
  </metadata>
  <defs
     id="defs4248" />
  <sodipodi:namedview
     pagecolor="#ffffff"
     bordercolor="#666666"
     borderopacity="1"
     objecttolerance="10"
     gridtolerance="10"
     guidetolerance="10"
     inkscape:pageopacity="0"
     inkscape:pageshadow="2"
     inkscape:window-width="1639"
     inkscape:window-height="1026"
     id="namedview4246"
     showgrid="false"
     units="mm"
     inkscape:zoom="0.7994403"
     inkscape:cx="414.04543"
     inkscape:cy="527.25733"
     inkscape:window-x="41"
     inkscape:window-y="24"
     inkscape:window-maximized="1"
     inkscape:current-layer="svg4213" />
  <style
     type="text/css"
     id="style4215">
	.st0{fill:#FFFFFF;}
	.st1{opacity:0.44;fill:#62BB46;}
	.st2{opacity:0.45;fill:#4C7ABD;}
	.st3{fill:url(#SVGID_1_);}
</style>
  <g
     id="g4254"
     inkscape:export-xdpi="300.06"
     inkscape:export-ydpi="300.06">
    <rect
       y="215.77589"
       x="73.186028"
       height="579.11896"
       width="579.11896"
       id="rect4252"
       style="fill:none;fill-rule:evenodd;stroke:none;stroke-width:0.88102043px;stroke-linecap:butt;stroke-linejoin:miter;stroke-opacity:1" />
    <g
       transform="translate(65.045507,199.33537)"
       id="g4217">
      <circle
         style="fill:#ffffff"
         id="circle4219"
         r="209.5"
         cy="247.5"
         cx="351.29999"
         class="st0" />
      <circle
         style="fill:#ffffff"
         id="circle4221"
         r="209.5"
         cy="364.5"
         cx="244.10001"
         class="st0" />
      <circle
         style="opacity:0.43999999;fill:#62bb46"
         id="circle4223"
         r="209.5"
         cy="247.5"
         cx="351.29999"
         class="st1" />
      <circle
         style="opacity:0.45;fill:#4c7abd"
         id="circle4225"
         r="209.5"
         cy="364.5"
         cx="244.10001"
         class="st2" />
      <linearGradient
         y2="157.82851"
         x2="450.77979"
         y1="454.17151"
         x1="154.4368"
         gradientUnits="userSpaceOnUse"
         id="SVGID_1_">
        <stop
           id="stop4228"
           style="stop-color:#1B75BC"
           offset="0" />
        <stop
           id="stop4230"
           style="stop-color:#009444"
           offset="1" />
      </linearGradient>
      <circle
         style="fill:url(#SVGID_1_)"
         id="circle4232"
         r="209.5"
         cy="306"
         cx="302.60001"
         class="st3" />
      <g
         id="g4234">
        <path
           style="fill:#ffffff"
           inkscape:connector-curvature="0"
           id="path4236"
           d="m 138.3,331.7 c -1.4,-1.4 -2.1,-3.1 -2.1,-5.1 l 0,-50.6 c 0,-4 1.4,-7.4 4.2,-10.2 2.8,-2.8 6.2,-4.2 10.2,-4.2 l 28.9,0 c 4,0 7.4,1.4 10.2,4.3 2.8,2.8 4.2,6.2 4.2,10.2 l 0,14.5 c 0,4 -1.4,7.5 -4.3,10.3 -2.8,2.8 -6.2,4.2 -10.2,4.2 -2,0 -3.7,-0.7 -5.1,-2.1 -1.4,-1.4 -2.1,-3.1 -2.1,-5.1 0,-2 0.7,-3.7 2.1,-5.1 1.4,-1.4 3.1,-2.1 5.1,-2.1 l 0,-7.2 c 0,-2 -0.7,-3.7 -2.1,-5.1 -1.4,-1.4 -3.1,-2.1 -5.1,-2.1 l -14.5,0 c -2,0 -3.7,0.7 -5.1,2.1 -1.4,1.4 -2.1,3.1 -2.1,5.1 l 0,7.2 c 2,0 3.7,0.7 5.1,2.1 1.4,1.4 2.1,3.1 2.1,5.1 0,2 -0.7,3.7 -2.1,5.1 -1.4,1.4 -3.1,2.1 -5.1,2.1 l 0,21.7 c 0,2 -0.7,3.7 -2.1,5.1 -1.4,1.4 -3.1,2.1 -5.1,2.1 -1.9,-0.2 -3.6,-0.9 -5,-2.3 z M 160,302.8 c -1.4,-1.4 -2.1,-3.1 -2.1,-5.1 0,-2 0.7,-3.7 2.1,-5.1 1.4,-1.4 3.1,-2.1 5.1,-2.1 2,0 3.7,0.7 5.1,2.1 1.4,1.4 2.1,3.1 2.1,5.1 0,2 -0.7,3.7 -2.1,5.1 -1.4,1.4 -3.1,2.1 -5.1,2.1 -2,0 -3.7,-0.7 -5.1,-2.1 z"
           class="st0" />
        <path
           style="fill:#ffffff"
           inkscape:connector-curvature="0"
           id="path4238"
           d="m 210.5,295.6 c -1.4,-1.4 -2.1,-3.1 -2.1,-5.1 l 0,-14.5 c 0,-4 1.4,-7.4 4.2,-10.2 2.8,-2.8 6.2,-4.2 10.2,-4.2 l 28.9,0 c 4,0 7.4,1.4 10.2,4.3 2.8,2.8 4.2,6.2 4.2,10.2 l 0,14.5 c 0,2 -0.7,3.7 -2.1,5.1 -1.4,1.4 -3.1,2.1 -5.1,2.1 -2,0 -3.7,-0.7 -5.1,-2.1 -1.4,-1.4 -2.1,-3.1 -2.1,-5.1 l 0,-7.2 c 0,-2 -0.7,-3.7 -2.1,-5.1 -1.4,-1.4 -3.1,-2.1 -5.1,-2.1 l -14.5,0 c -2,0 -3.7,0.7 -5.1,2.1 -1.4,1.4 -2.1,3.1 -2.1,5.1 l 0,7.2 c 0,2 -0.7,3.7 -2.1,5.1 -1.4,1.4 -3.1,2.1 -5.1,2.1 -1.9,-0.2 -3.6,-0.8 -5.1,-2.2 z m 12.4,38.2 c -4,0 -7.5,-1.4 -10.3,-4.2 -2.8,-2.8 -4.2,-6.2 -4.2,-10.2 l 0,-14.5 c 0,-2 0.7,-3.7 2.1,-5.1 1.4,-1.4 3.1,-2.1 5.1,-2.1 2,0 3.7,0.7 5.1,2.1 1.4,1.4 2.1,3.1 2.1,5.1 l 0,7.2 c 0,2 0.7,3.7 2.1,5.1 1.4,1.4 3.1,2.1 5.1,2.1 l 14.5,0 c 2,0 3.7,-0.7 5.1,-2.1 1.4,-1.4 2.1,-3.1 2.1,-5.1 l 0,-7.2 c 0,-2 0.7,-3.7 2.1,-5.1 1.4,-1.4 3.1,-2.1 5.1,-2.1 2,0 3.7,0.7 5.1,2.1 1.4,1.4 2.1,3.1 2.1,5.1 l 0,14.5 c 0,4 -1.4,7.5 -4.3,10.3 -2.8,2.8 -6.2,4.2 -10.2,4.2 l -28.7,0 z"
           class="st0" />
        <path
           style="fill:#ffffff"
           inkscape:connector-curvature="0"
           id="path4240"
           d="m 282.8,295.6 c -1.4,-1.4 -2.1,-3.1 -2.1,-5.1 l 0,-21.7 c 0,-2 0.7,-3.7 2.1,-5.1 1.4,-1.4 3.1,-2.1 5.1,-2.1 2,0 3.7,0.7 5.1,2.1 1.4,1.4 2.1,3.1 2.1,5.1 l 0,21.7 c 0,2 -0.7,3.7 -2.1,5.1 -1.4,1.4 -3.1,2.1 -5.1,2.1 -1.9,-0.1 -3.7,-0.7 -5.1,-2.1 z m 0,36.1 c -1.4,-1.4 -2.1,-3.1 -2.1,-5.1 l 0,-21.7 c 0,-2 0.7,-3.7 2.1,-5.1 1.4,-1.4 3.1,-2.1 5.1,-2.1 2,0 3.7,0.7 5.1,2.1 1.4,1.4 2.1,3.1 2.1,5.1 l 0,21.7 c 0,2 -0.7,3.7 -2.1,5.1 -1.4,1.4 -3.1,2.1 -5.1,2.1 -1.9,0 -3.7,-0.7 -5.1,-2.1 z"
           class="st0" />
        <path
           style="fill:#ffffff"
           inkscape:connector-curvature="0"
           id="path4242"
           d="m 311.7,331.7 c -1.4,-1.4 -2.1,-3.1 -2.1,-5.1 l 0,-57.8 c 0,-2 0.7,-3.7 2.1,-5.1 1.4,-1.4 3.1,-2.1 5.1,-2.1 2,0 3.7,0.7 5.1,2.1 1.4,1.4 2.1,3.1 2.1,5.1 0,2 0.7,3.7 2.1,5.1 1.4,1.4 3.1,2.1 5.1,2.1 l 7.2,0 0,7.2 c 0,2 0.7,3.7 2.1,5.1 1.4,1.4 3.1,2.1 5.1,2.1 l 7.2,0 0,7.2 c 0,2 0.7,3.7 2.1,5.1 1.4,1.4 3.1,2.1 5.1,2.1 2,0 3.7,-0.7 5.1,-2.1 1.4,-1.4 2.1,-3.1 2.1,-5.1 l 0,-28.9 c 0,-2 0.7,-3.7 2.1,-5.1 1.4,-1.4 3.1,-2.1 5.1,-2.1 2,0 3.7,0.7 5.1,2.1 1.4,1.4 2.1,3.1 2.1,5.1 l 0,57.8 c 0,2 -0.7,3.7 -2.1,5.1 -1.4,1.4 -3.1,2.1 -5.1,2.1 -2,0 -3.7,-0.7 -5.1,-2.1 -1.4,-1.4 -2.1,-3.1 -2.1,-5.1 0,-2 -0.7,-3.7 -2.1,-5.1 -1.4,-1.4 -3.1,-2.1 -5.1,-2.1 l -7,0 0,-7.2 c 0,-2 -0.7,-3.7 -2.1,-5.1 -1.4,-1.4 -3.1,-2.1 -5.1,-2.1 l -7.2,0 0,-7.2 c 0,-2 -0.7,-3.7 -2.1,-5.1 -1.4,-1.4 -3.1,-2.1 -5.1,-2.1 -2,0 -3.7,0.7 -5.1,2.1 -1.4,1.4 -2.1,3.1 -2.1,5.1 l 0,28.9 c 0,2 -0.7,3.7 -2.1,5.1 -1.4,1.4 -3.1,2.1 -5.1,2.1 -2.1,0 -3.9,-0.7 -5.3,-2.1 z"
           class="st0" />
        <path
           style="fill:#ffffff"
           inkscape:connector-curvature="0"
           id="path4244"
           d="m 427.3,295.6 c -1.4,-1.4 -2.1,-3.1 -2.1,-5.1 l 0,-7.2 c 0,-2 -0.7,-3.7 -2.1,-5.1 -1.4,-1.4 -3.1,-2.1 -5.1,-2.1 l -14.5,0 c -2,0 -3.7,-0.7 -5.1,-2.1 -1.4,-1.4 -2.1,-3.1 -2.1,-5.1 0,-2 0.7,-3.7 2.1,-5.1 1.4,-1.4 3.1,-2.1 5.1,-2.1 l 57.8,0 c 2,0 3.7,0.7 5.1,2.1 1.4,1.4 2.1,3.1 2.1,5.1 0,2 -0.7,3.7 -2.1,5.1 -1.4,1.4 -3.1,2.1 -5.1,2.1 l -14.5,0 c -2,0 -3.7,0.7 -5.1,2.1 -1.4,1.4 -2.1,3.1 -2.1,5.1 l 0,7.2 c 0,2 -0.7,3.7 -2.1,5.1 -1.4,1.4 -3.1,2.1 -5.1,2.1 -1.9,-0.1 -3.6,-0.7 -5.1,-2.1 z m 0,14.4 c -1.4,-1.4 -2.1,-3.1 -2.1,-5.1 0,-2 0.7,-3.7 2.1,-5.1 1.4,-1.4 3.1,-2.1 5.1,-2.1 2,0 3.7,0.7 5.1,2.1 1.4,1.4 2.1,3.1 2.1,5.1 0,2 -0.7,3.7 -2.1,5.1 -1.4,1.4 -3.1,2.1 -5.1,2.1 -1.9,0 -3.6,-0.7 -5.1,-2.1 z m 0,21.7 c -1.4,-1.4 -2.1,-3.1 -2.1,-5.1 l 0,-7.2 c 0,-2 0.7,-3.7 2.1,-5.1 1.4,-1.4 3.1,-2.1 5.1,-2.1 2,0 3.7,0.7 5.1,2.1 1.4,1.4 2.1,3.1 2.1,5.1 l 0,7.2 c 0,2 -0.7,3.7 -2.1,5.1 -1.4,1.4 -3.1,2.1 -5.1,2.1 -1.9,0 -3.6,-0.7 -5.1,-2.1 z"
           class="st0" />
      </g>
    </g>
  </g>
</svg>
